<svg xmlns="http://www.w3.org/2000/svg" width="160" height="52" viewBox="0 0 160 52">
    <g fill="none" fill-rule="evenodd">
        <rect width="159" height="51" x=".5" y=".5" stroke="#8B95A1" rx="5"/>
        <g fill="#FFF" fill-rule="nonzero">
            <path d="M48.305 24.268H43.57l-1.136 3.357H40.43l4.483-12.418h2.083l4.484 12.418h-2.04l-1.135-3.357zm-4.243-1.549h3.752l-1.85-5.447h-.052l-1.85 5.447zM61.162 23.098c0 2.814-1.506 4.621-3.778 4.621a3.07 3.07 0 0 1-2.849-1.584h-.043v4.485h-1.858V18.57h1.799v1.507h.034a3.212 3.212 0 0 1 2.883-1.6c2.297 0 3.812 1.815 3.812 4.621zm-1.91 0c0-1.833-.947-3.038-2.393-3.038-1.42 0-2.375 1.23-2.375 3.038 0 1.824.955 3.046 2.375 3.046 1.446 0 2.393-1.196 2.393-3.046zM71.126 23.098c0 2.814-1.505 4.621-3.777 4.621a3.07 3.07 0 0 1-2.849-1.584h-.043v4.485h-1.858V18.57h1.798v1.507h.035a3.212 3.212 0 0 1 2.882-1.6c2.298 0 3.812 1.815 3.812 4.621zm-1.91 0c0-1.833-.946-3.038-2.392-3.038-1.42 0-2.375 1.23-2.375 3.038 0 1.824.955 3.046 2.375 3.046 1.446 0 2.393-1.196 2.393-3.046zM77.712 24.165c.138 1.231 1.334 2.04 2.97 2.04 1.566 0 2.693-.809 2.693-1.92 0-.963-.68-1.54-2.29-1.936l-1.609-.388c-2.28-.55-3.339-1.617-3.339-3.347 0-2.143 1.867-3.615 4.519-3.615 2.624 0 4.423 1.472 4.483 3.615h-1.876c-.112-1.24-1.137-1.988-2.634-1.988-1.497 0-2.521.757-2.521 1.859 0 .878.654 1.394 2.255 1.79l1.368.336c2.548.602 3.606 1.626 3.606 3.442 0 2.323-1.85 3.778-4.794 3.778-2.753 0-4.613-1.42-4.733-3.667h1.902zM89.348 16.428v2.143h1.722v1.471h-1.722v4.992c0 .775.345 1.136 1.102 1.136.204-.003.408-.018.611-.043v1.463c-.34.064-.686.093-1.032.086-1.833 0-2.548-.688-2.548-2.444v-5.19h-1.316v-1.471h1.316v-2.143h1.867zM92.067 23.098c0-2.848 1.678-4.639 4.294-4.639 2.625 0 4.295 1.79 4.295 4.64 0 2.856-1.661 4.638-4.295 4.638-2.633 0-4.294-1.782-4.294-4.639zm6.695 0c0-1.954-.895-3.107-2.401-3.107-1.506 0-2.4 1.162-2.4 3.107 0 1.962.894 3.107 2.4 3.107 1.506 0 2.401-1.145 2.401-3.107zM102.188 18.57h1.772v1.542h.043a2.16 2.16 0 0 1 2.178-1.636c.214 0 .428.023.637.07v1.738a2.598 2.598 0 0 0-.835-.113 1.873 1.873 0 0 0-1.937 2.083v5.37h-1.858v-9.053zM115.386 24.965c-.25 1.644-1.85 2.772-3.898 2.772-2.634 0-4.269-1.765-4.269-4.596 0-2.84 1.644-4.682 4.19-4.682 2.506 0 4.08 1.721 4.08 4.466v.637h-6.394v.112a2.358 2.358 0 0 0 2.436 2.565 2.048 2.048 0 0 0 2.09-1.274h1.765zm-6.282-2.702h4.526a2.177 2.177 0 0 0-2.22-2.298 2.292 2.292 0 0 0-2.306 2.298zM116.738 19.75l1.015-4.543h1.807l-1.23 4.543zM119.479 23.098c0-2.797 1.54-4.622 3.786-4.622a3.054 3.054 0 0 1 2.84 1.6h.035v-4.87h1.867v12.419H126.2v-1.54h-.034a3.088 3.088 0 0 1-2.883 1.634c-2.264 0-3.804-1.824-3.804-4.62zm1.901 0c0 1.859.948 3.046 2.393 3.046 1.429 0 2.384-1.205 2.384-3.046 0-1.825-.955-3.038-2.384-3.038-1.445 0-2.393 1.196-2.393 3.038zM129.645 25.051c0-1.583 1.213-2.539 3.364-2.668l2.479-.137v-.689c0-1.007-.662-1.575-1.79-1.575a1.73 1.73 0 0 0-1.902 1.274h-1.738c.052-1.635 1.574-2.797 3.692-2.797 2.16 0 3.588 1.18 3.588 2.96v6.206h-1.78v-1.49h-.044a3.237 3.237 0 0 1-2.857 1.645 2.744 2.744 0 0 1-3.012-2.729zm5.843-.817v-.697l-2.229.137c-1.11.07-1.738.551-1.738 1.326 0 .792.654 1.308 1.652 1.308a2.17 2.17 0 0 0 2.315-2.074zM139.232 18.57h1.772v1.542h.043a2.893 2.893 0 0 1 2.85-1.644c1.996 0 3.14 1.282 3.14 3.356v5.8h-1.867v-5.439c0-1.36-.628-2.116-1.936-2.116a2.104 2.104 0 0 0-2.144 2.34v5.216h-1.858V18.57zM41.58 31.271a.554.554 0 1 1 1.108.024.554.554 0 0 1-1.108-.024zm.09 7.087v-5.966h.928v5.966h-.927zM44.113 33.855h.856v.715h.066c.231-.526.77-.848 1.344-.801a1.465 1.465 0 0 1 1.559 1.674v2.915h-.89v-2.692c0-.723-.314-1.083-.97-1.083a1.033 1.033 0 0 0-1.076 1.142v2.633h-.889v-4.503zM49.089 36.105c0-1.423.731-2.324 1.869-2.324a1.484 1.484 0 0 1 1.38.79h.067v-2.473h.889v6.26h-.852v-.712h-.07a1.563 1.563 0 0 1-1.414.787c-1.145 0-1.87-.902-1.87-2.328zm.918 0c0 .956.45 1.53 1.203 1.53.749 0 1.212-.583 1.212-1.526 0-.94-.468-1.53-1.212-1.53-.748 0-1.203.58-1.203 1.526zM54.636 32.523a.576.576 0 1 1 .575.542.547.547 0 0 1-.575-.542zm.132 1.332h.885v4.503h-.885v-4.503zM57.087 33.855h.855v.69h.067a1.22 1.22 0 0 1 1.216-.764c.133-.002.266.01.396.037v.877a2.39 2.39 0 0 0-.496-.054 1.055 1.055 0 0 0-1.15 1.058v2.66h-.888v-4.504zM60.554 32.523a.576.576 0 1 1 .575.542.547.547 0 0 1-.575-.542zm.132 1.332h.885v4.503h-.885v-4.503zM63.005 33.855h.855v.715h.067c.231-.526.77-.848 1.344-.801a1.465 1.465 0 0 1 1.558 1.674v2.915h-.889v-2.692c0-.723-.314-1.083-.971-1.083a1.033 1.033 0 0 0-1.075 1.142v2.633h-.89v-4.503z"/>
            <g>
                <path d="M30.108 26.963a5.59 5.59 0 0 1 2.62-4.677 5.615 5.615 0 0 0-4.438-2.43c-1.868-.2-3.678 1.131-4.63 1.131-.97 0-2.435-1.112-4.013-1.08a5.902 5.902 0 0 0-4.974 3.074c-2.151 3.772-.547 9.316 1.513 12.365 1.031 1.493 2.236 3.16 3.812 3.102 1.543-.065 2.12-.997 3.981-.997 1.845 0 2.385.997 3.994.96 1.655-.028 2.698-1.5 3.692-3.008.741-1.064 1.311-2.24 1.69-3.484-1.967-.842-3.245-2.793-3.247-4.956zM27.07 17.85a5.536 5.536 0 0 0 1.24-3.933 5.49 5.49 0 0 0-3.568 1.87 5.266 5.266 0 0 0-1.272 3.787 4.536 4.536 0 0 0 3.6-1.724z"/>
            </g>
        </g>
    </g>
</svg>
