<svg xmlns="http://www.w3.org/2000/svg" width="160" height="52" viewBox="0 0 160 52">
    <defs>
        <linearGradient id="a" x1="61.026%" x2="26.521%" y1="4.946%" y2="71.879%">
            <stop offset="0%" stop-color="#00A0FF"/>
            <stop offset="1%" stop-color="#00A1FF"/>
            <stop offset="26%" stop-color="#00BEFF"/>
            <stop offset="51%" stop-color="#00D2FF"/>
            <stop offset="76%" stop-color="#00DFFF"/>
            <stop offset="100%" stop-color="#00E3FF"/>
        </linearGradient>
        <linearGradient id="b" x1="107.571%" x2="-130.383%" y1="49.942%" y2="49.942%">
            <stop offset="0%" stop-color="#FFE000"/>
            <stop offset="41%" stop-color="#FFBD00"/>
            <stop offset="78%" stop-color="#FFA500"/>
            <stop offset="100%" stop-color="#FF9C00"/>
        </linearGradient>
        <linearGradient id="c" x1="86.219%" x2="-50.15%" y1="30.896%" y2="136.052%">
            <stop offset="0%" stop-color="#FF3A44"/>
            <stop offset="100%" stop-color="#C31162"/>
        </linearGradient>
        <linearGradient id="d" x1="-18.814%" x2="42.061%" y1="-11.839%" y2="35.098%">
            <stop offset="0%" stop-color="#32A071"/>
            <stop offset="7%" stop-color="#2DA771"/>
            <stop offset="48%" stop-color="#15CF74"/>
            <stop offset="80%" stop-color="#06E775"/>
            <stop offset="100%" stop-color="#00F076"/>
        </linearGradient>
    </defs>
    <g fill="none" fill-rule="evenodd">
        <rect width="159" height="51" x=".5" y=".5" stroke="#8B95A1" rx="5"/>
        <g fill-rule="nonzero">
            <path fill="#FFF" d="M82.75 19.65a3.72 3.72 0 1 0 3.73 3.72 3.66 3.66 0 0 0-3.73-3.72zm.22 6a2.26 2.26 0 1 1 2.1-2.25 2.15 2.15 0 0 1-2.1 2.22v.03zm-8.36-6a3.72 3.72 0 1 0 3.73 3.72 3.66 3.66 0 0 0-3.72-3.72h-.01zm.23 6a2.282 2.282 0 0 1-2.218-1.28 2.245 2.245 0 0 1 .391-2.516 2.293 2.293 0 0 1 2.504-.56A2.26 2.26 0 0 1 76.96 23.4a2.14 2.14 0 0 1-.589 1.545c-.395.416-.942.66-1.52.675l-.01.03zm-9.92-4.86v1.58h3.78a3.31 3.31 0 0 1-.86 2 3.91 3.91 0 0 1-2.92 1.11 4.2 4.2 0 0 1 0-8.39 4 4 0 0 1 2.85 1.12l1.11-1.11a5.51 5.51 0 0 0-4-1.59 5.78 5.78 0 1 0 0 11.55 5.3 5.3 0 0 0 4-1.62 5.23 5.23 0 0 0 1.44-3.66 4.84 4.84 0 0 0-.09-1l-5.31.01zm39.61 1.23a3.47 3.47 0 0 0-3.18-2.37 3.54 3.54 0 0 0-3.51 3.72 3.64 3.64 0 0 0 3.69 3.72 3.73 3.73 0 0 0 3.09-1.61l-1.27-.85a2.12 2.12 0 0 1-1.83 1 1.89 1.89 0 0 1-1.8-1.12l5-2.06-.19-.43zm-5.07 1.24a2 2 0 0 1 1.94-2.17 1.43 1.43 0 0 1 1.38.79l-3.32 1.38zm-4 3.6h1.63V15.93h-1.67l.04 10.93zm-2.72-6.38h-.06a2.58 2.58 0 0 0-2-.83 3.72 3.72 0 1 0 0 7.44 2.52 2.52 0 0 0 2-.85h.06v.54c0 1.42-.76 2.18-2 2.18a2.08 2.08 0 0 1-1.88-1.32l-1.42.59a3.55 3.55 0 0 0 3.3 2.19c1.91 0 3.53-1.12 3.53-3.87v-6.67h-1.53v.6zm-1.946 5.14c-1.3-.11-2.294-1.084-2.294-2.25s.994-2.14 2.294-2.25c1.263.15 2.206 1.113 2.206 2.25s-.943 2.1-2.206 2.25zm21.386-9.69h-3.91v10.93h1.63v-4.14h2.28a3.4 3.4 0 1 0 0-6.79zm0 5.27h-2.32v-3.72h2.32a1.87 1.87 0 1 1 0 3.74v-.02zm10.08-1.57a3.07 3.07 0 0 0-2.91 1.67l1.45.61a1.53 1.53 0 0 1 1.49-.8 1.56 1.56 0 0 1 1.71 1.4v.12a3.53 3.53 0 0 0-1.7-.43c-1.56 0-3.15.86-3.15 2.46a2.53 2.53 0 0 0 2.72 2.41 2.3 2.3 0 0 0 2.08-1.07v.84h1.67v-4.19c0-1.94-1.45-3.02-3.32-3.02h-.04zm-.2 6c-.53 0-1.27-.27-1.27-.93 0-.84.92-1.16 1.72-1.16a2.89 2.89 0 0 1 1.49.36 2 2 0 0 1-1.9 1.72l-.04.01zm9.25-5.75l-1.87 4.74h-.05l-1.94-4.74h-1.76l2.93 6.6-1.66 3.69h1.7l4.49-10.31-1.84.02zm-14.69 7h1.63V15.93h-1.63v10.95z"/>
            <path fill="url(#a)" d="M1.46 1.4A2 2 0 0 0 1 2.8v22.12a2 2 0 0 0 .46 1.41l.07.07 12.39-12.39v-.29L1.53 1.33l-.07.07z" transform="translate(27 13)"/>
            <path fill="url(#b)" d="M18.05 18.14l-4.13-4.13v-.29l4.13-4.13h.1l4.89 2.78c1.4.79 1.4 2.09 0 2.89l-4.89 2.78-.1.1z" transform="translate(27 13)"/>
            <path fill="url(#c)" d="M18.15 18.09l-4.23-4.23L1.46 26.33a1.65 1.65 0 0 0 2.08.06l14.61-8.3" transform="translate(27 13)"/>
            <path fill="url(#d)" d="M18.15 9.64L3.54 1.34a1.62 1.62 0 0 0-2.08.06l12.46 12.46 4.23-4.22z" transform="translate(27 13)"/>
            <path fill="#000" d="M45.05 30.99l-14.51 8.25a1.68 1.68 0 0 1-2 0l-.07.08.07.07a1.68 1.68 0 0 0 2 0l14.61-8.3-.1-.1z" opacity=".2"/>
            <path fill="#000" d="M28.46 39.18a2 2 0 0 1-.46-1.41v.15a2 2 0 0 0 .46 1.41l.07-.08-.07-.07zM50.04 28.16l-5 2.83.1.1 4.89-2.78a1.76 1.76 0 0 0 1-1.45 1.87 1.87 0 0 1-.99 1.3z" opacity=".12"/>
            <path fill="#FFF" d="M30.54 14.48l19.5 11.08a1.89 1.89 0 0 1 1 1.3 1.76 1.76 0 0 0-1-1.44l-19.5-11.08c-1.4-.8-2.54-.14-2.54 1.46v.15c0-1.6 1.14-2.26 2.54-1.47z" opacity=".25"/>
            <path fill="#FFF" stroke="#FFF" stroke-width=".2" d="M59.84 35.72h-.71v-1.93h.71zM61.11 39.88v-6.09h1.86a3 3 0 0 1 2.25.85 3 3 0 0 1-2.25 5.24h-1.86zm.78-.75h1.08a2.38 2.38 0 0 0 1.67-4 2.24 2.24 0 0 0-1.67-.61h-1.08v4.61zM70.7 34.54h-2.77v1.94h2.5v.73h-2.5v1.93h2.77v.75h-3.55V33.8h3.55zM71.81 39.88v-6.09h1l2.95 4.74v-4.74h.79v6.09h-.82l-3.09-5v4.96zM79.09 39.88l2.3-6.09h.88l2.29 6.09h-.86l-.59-1.65h-2.56l-.59 1.65h-.87zm1.73-2.4h2l-1-2.75-1 2.75zM85.36 39.88v-6.09h.78v5.34h2.64v.75zM89.62 39.88v-6.09h.78v6.09zM91.81 39.88v-6.09h1l3 4.74v-4.74h.78v6.09h-.82l-3.09-5v4.96z"/>
        </g>
    </g>
</svg>
